Coordinates
version=1
nRows=15
nColumns=23
inDegrees=yes

Units are S.I. units (second, meters, Newtons, ...)
If the header above contains a line with 'inDegrees', this indicates whether rotational values are in degrees (yes) or radians (no).

endheader
time	pelvis_tilt	pelvis_list	pelvis_rotation	pelvis_tx	pelvis_ty	pelvis_tz	hip_flexion_r	hip_adduction_r	hip_rotation_r	knee_angle_r	knee_angle_r_beta	ankle_angle_r	subtalar_angle_r	mtp_angle_r	hip_flexion_l	hip_adduction_l	hip_rotation_l	knee_angle_l	knee_angle_l_beta	ankle_angle_l	subtalar_angle_l	mtp_angle_l
     15.00000000	     -9.07093354	      2.47811546	      6.18639196	      2.21729723	      0.92833887	      1.01590770	     52.38750895	     -5.66278321	     -0.57921964	    108.71605413	      1.89745309	     -1.55725735	    -13.59449441	      0.00000000	      0.74858492	      1.11473908	     -2.61226318	     29.93065685	      0.52238851	     16.89938006	      6.64564026	      0.00000000
     15.00666667	     -8.83736253	      1.47760007	      5.68183133	      2.21942004	      0.93270363	      1.01563400	     53.24067811	     -4.65249489	     -1.18293283	    105.81807216	      1.84687377	     -1.55535431	    -14.57447049	      0.00000000	     -2.17673498	     -0.03670288	     -2.99738042	     27.57133243	      0.48121053	     12.67947369	      6.00406804	      0.00000000
     15.01333333	     -8.99931755	      0.58885355	      5.30861468	      2.22160084	      0.93654188	      1.01525772	     54.33774458	     -3.86885424	     -1.78592694	    102.75610736	      1.79343240	     -1.42162599	    -15.27572809	      0.00000000	     -4.44052662	     -1.04295823	     -3.56045013	     25.54340468	      0.44581651	      7.98004520	      5.63097250	      0.00000000
     15.02000000	     -9.32830365	     -0.07362184	      4.80650211	      2.22373071	      0.94008573	      1.01519056	     55.48188658	     -3.15368952	     -2.16241854	     99.53053980	      1.73713563	     -1.31174535	    -16.03993852	      0.00000000	     -6.36768332	     -1.77177503	     -4.41862693	     23.71647354	      0.41393055	      3.01402876	      5.17958054	      0.00000000
     15.02666667	     -9.45591946	     -0.78051630	      4.55705137	      2.22613617	      0.94402716	      1.01476803	     56.07866263	     -2.65510205	     -2.82301425	     95.99568385	      1.67544075	     -1.21005365	    -16.76230115	      0.00000000	     -8.31526213	     -2.54437884	     -5.08357836	     22.08935216	      0.38553192	     -2.25205746	      4.42891530	      0.00000000
     15.03333333	     -9.85987146	     -1.15105037	      4.07157763	      2.22832416	      0.94734208	      1.01481816	     56.89134303	     -2.15322856	     -3.03746152	     92.35106189	      1.61183010	     -1.04706503	    -17.27259993	      0.00000000	     -9.72097439	     -2.93506221	     -6.16347556	     20.93519066	      0.36538801	     -7.30191815	      3.89652108	      0.00000000
     15.04000000	     -9.91951004	     -1.59376920	      3.89497319	      2.23077286	      0.95119635	      1.01439745	     56.98965217	     -1.93393889	     -3.61733140	     88.37445560	      1.54242522	     -0.92583340	    -17.73333944	      0.00000000	    -11.32692455	     -3.40717484	     -6.82869835	     19.94811180	      0.34816023	    -12.27367980	      2.93480856	      0.00000000
     15.04666667	    -10.11431377	     -1.75493785	      3.58033236	      2.23302042	      0.95454140	      1.01424401	     57.10849668	     -1.77960766	     -3.90544490	     84.26126694	      1.47063654	     -0.74076369	    -17.92446110	      0.00000000	    -12.52656861	     -3.57435043	     -7.69980269	     19.49503009	      0.34025246	    -16.62373284	      2.24503325	      0.00000000
     15.05333333	    -10.31459783	     -1.71113946	      3.19731171	      2.23504996	      0.95758286	      1.01427701	     57.08030108	     -1.70169932	     -4.02768326	     79.97600325	      1.39584458	     -0.50361571	    -17.82900989	      0.00000000	    -13.48483193	     -3.50820464	     -8.53395031	     19.51486150	      0.34059859	    -20.33167710	      1.57279834	      0.00000000
     15.06000000	    -10.59597734	     -1.50558516	      2.84305963	      2.23691735	      0.96018455	      1.01432685	     56.96356829	     -1.77749737	     -4.10717841	     75.50805775	      1.31786422	     -0.17093971	    -17.35243850	      0.00000000	    -14.11287445	     -3.26495656	     -9.15929802	     20.03727005	      0.34971634	    -23.28154191	      0.99914522	      0.00000000
     15.06666667	    -10.53264849	     -1.36197387	      2.55742358	      2.23869737	      0.96300425	      1.01433792	     56.23618024	     -1.86925119	     -4.38685032	     70.77519871	      1.23526025	      0.16647291	    -16.63516753	      0.00000000	    -14.95464450	     -3.05167252	     -9.39020125	     20.84877087	      0.36387970	    -25.52221929	      0.28933428	      0.00000000
     15.07333333	    -10.46324684	     -1.12421605	      2.29515903	      2.24028187	      0.96543536	      1.01437469	     55.33970044	     -2.09188605	     -4.75288239	     65.89228975	      1.15003741	      0.56333217	    -15.43457126	      0.00000000	    -15.59535094	     -2.71621756	     -9.34765599	     22.09546802	      0.38563867	    -27.00278176	     -0.11581665	      0.00000000
     15.08000000	    -10.49055002	     -0.78858471	      1.95505817	      2.24155688	      0.96727784	      1.01465728	     54.42786299	     -2.28611887	     -5.06037036	     60.90128673	      1.06292797	      1.06749144	    -13.77486164	      0.00000000	    -15.92329880	     -2.21533182	     -9.06420345	     23.79513861	      0.41530351	    -27.76179232	     -0.51744510	      0.00000000
     15.08666667	    -10.56247277	     -0.43734540	      1.63264505	      2.24261829	      0.96864578	      1.01503405	     53.42107579	     -2.48410719	     -5.45878989	     55.81554894	      0.97416510	      1.64063237	    -11.68443463	      0.00000000	    -16.00951695	     -1.64954450	     -8.50782569	     25.87821583	      0.45166007	    -27.96982221	     -0.88095137	      0.00000000
     15.09333333	    -10.48827694	     -0.17156229	      1.30363474	      2.24361709	      0.96983376	      1.01548952	     52.09829269	     -2.57976405	     -6.01092028	     50.66415123	      0.88425625	      2.26084268	     -9.10287277	      0.00000000	    -16.11431697	     -1.11958465	     -7.83620847	     28.21912596	      0.49251666	    -27.75368688	     -1.17967708	      0.00000000
